# xmcd
#
# Track frame offsets: 
#        150
#        37451
#        58973
#        77660
#        94330
#        113414
#        128776
#        206096
#        217835
#        232954
#        266264
#        280910
#        299395
#        325880
#
# Disc length: 4586 seconds
#
# Revision: 1
# Processed by: cddbd v1.5.2PL0 Copyright (c) Steve Scherf et al.
# Submitted via: ExactAudioCopy v0.95b4
#
DISCID=d111e80e
DTITLE=Jon Spencer Blues Explosion - Experimental Remixes
DYEAR=1995
DGENRE=Rock
TTITLE0=Bellbottoms (Old Rascal)
TTITLE1=Flavor, Part 1 (Mike D)
TTITLE2=Flavor, Part 2 (Beck and Mike D)
TTITLE3=Soul Typecast (Dub Narcotic)
TTITLE4=Greyhound, Part 1 (Moby)
TTITLE5=Greyhound, Part 2 (GZA)
TTITLE6=Tour Diary (Original Full-Length Version)
TTITLE7=Explo (Plunderphonic)
TTITLE8=Blues "XXX" Man (Prince Paul)
TTITLE9=T.A.T.B. (For the Saints and Sinners)
TTITLE10=Attack (Detroit)
TTITLE11=Shakin' (S60 V JSBX)
TTITLE12=Lapdance (Benzel-Waters)
TTITLE13=Calvin (Zebra Ranch)
EXTD=
EXTT0=
EXTT1=
EXTT2=
EXTT3=
EXTT4=
EXTT5=
EXTT6=
EXTT7=
EXTT8=
EXTT9=
EXTT10=
EXTT11=
EXTT12=
EXTT13=
PLAYORDER=
